<mxfile host="app.diagrams.net" modified="2024-03-18T19:55:55.755Z" agent="Mozilla/5.0 (Windows NT 10.0; Win64; x64; rv:123.0) Gecko/20100101 Firefox/123.0" version="24.0.7" etag="yznFrHwO7-Xe-OmLXMgT" type="github">
  <diagram name="Page-1" id="lnZlUyS0TKIjf1gaNoH5">
    <mxGraphModel>
      <root>
        <mxCell id="0" />
        <mxCell id="1" parent="0" />
      </root>
    </mxGraphModel>
  </diagram>
</mxfile>
